<svg width="776" height="776" viewbox = "0 0 776 776"  xmlns="http://www.w3.org/2000/svg">

<!--<json>{
    "text": "WWW.     TRASH    ROBOT    .NET",
    "left_margin": 0.05,
    "top_margin": 0.14,
    "horizontal_gap": 0.015,
    "vertical_gap": 0.1,
    "number_of_columns": 8,
    "rainbow": true
}</json>-->
<path d = "M 0 0 L776 0 L776 776 L0 776 L0 0 Z" stroke = "black" stroke-width = "1" fill = "black" />
<path d = "M38.800000000000004 108.63999999999999L 62.080000000000005 108.63999999999999 L 69.84 124.16 L 77.60000000000001 108.63999999999999 L 83.808 124.16 L 91.56800000000001 108.63999999999999 L 116.4 108.63999999999999 L 85.36000000000001 186.24 L 79.15200000000002 173.824 L 71.39200000000001 186.24 L 38.800000000000004 108.63999999999999 Z" stroke = "red" stroke-width = "1" fill = "red" />
<path d = "M128.04000000000002 108.63999999999999L 151.32000000000002 108.63999999999999 L 159.08000000000004 124.16 L 166.84000000000003 108.63999999999999 L 173.04800000000003 124.16 L 180.80800000000002 108.63999999999999 L 205.64000000000004 108.63999999999999 L 174.60000000000002 186.24 L 168.39200000000002 173.824 L 160.63200000000003 186.24 L 128.04000000000002 108.63999999999999 Z" stroke = "orange" stroke-width = "1" fill = "orange" />
<path d = "M217.28000000000003 108.63999999999999L 240.56000000000003 108.63999999999999 L 248.32000000000005 124.16 L 256.08000000000004 108.63999999999999 L 262.288 124.16 L 270.04800000000006 108.63999999999999 L 294.88000000000005 108.63999999999999 L 263.84000000000003 186.24 L 257.63200000000006 173.824 L 249.87200000000004 186.24 L 217.28000000000003 108.63999999999999 Z" stroke = "yellow" stroke-width = "1" fill = "yellow" />
<path d = "M331.352 186.24L 331.352 166.064 L 351.52799999999996 166.064 L 351.52799999999996 186.24 L 331.352 186.24 Z" stroke = "green" stroke-width = "1" fill = "green" />
<path d = "M128.04000000000002 263.84L 205.64000000000004 263.84 L 205.64000000000004 299.536 L 180.80800000000002 299.536 L 180.80800000000002 341.44 L 149.76800000000003 341.44 L 149.76800000000003 299.536 L 128.04000000000002 299.536 L 128.04000000000002 263.84 Z" stroke = "blue" stroke-width = "1" fill = "blue" />
<path d = "M217.28000000000003 341.44L 217.28000000000003 263.84 L 277.80800000000005 263.84 L 294.88000000000005 279.35999999999996 L 296.432 310.4 L 280.91200000000003 319.712 L 294.88000000000005 341.44 L 263.84000000000003 341.44 L 254.52800000000002 325.91999999999996 L 254.52800000000002 341.44 L 249.87200000000004 341.44 L 249.87200000000004 304.192 L 262.288 304.192 L 271.6 293.328 L 263.84000000000003 282.464 L 248.32000000000005 282.464 L 248.32000000000005 304.192 L 249.87200000000004 304.192 L 249.87200000000004 341.44 L 217.28000000000003 341.44 Z" stroke = "purple" stroke-width = "1" fill = "purple" />
<path d = "M306.52 341.44L 322.03999999999996 263.84 L 368.6 262.28799999999995 L 384.12 341.44 L 359.288 341.44 L 346.87199999999996 279.35999999999996 L 340.664 307.296 L 354.632 307.296 L 357.736 325.91999999999996 L 337.56 325.91999999999996 L 332.904 341.44 L 306.52 341.44 Z" stroke = "red" stroke-width = "1" fill = "red" />
<path d = "M422.14400000000006 341.44L 405.07200000000006 341.44 L 395.76000000000005 329.024 L 395.76000000000005 315.056 L 403.52000000000004 315.056 L 409.72800000000007 322.816 L 414.38400000000007 327.472 L 428.35200000000003 327.472 L 439.21600000000007 327.472 L 448.5280000000001 321.264 L 450.08000000000004 311.952 L 437.66400000000004 302.64 L 420.59200000000004 296.43199999999996 L 406.624 291.77599999999995 L 400.41600000000005 284.01599999999996 L 397.31200000000007 277.808 L 395.76000000000005 273.152 L 398.86400000000003 266.94399999999996 L 403.52000000000004 265.392 L 414.38400000000007 263.84 L 433.00800000000004 263.84 L 446.97600000000006 263.84 L 454.73600000000005 266.94399999999996 L 467.15200000000004 271.59999999999997 L 470.2560000000001 277.808 L 473.36000000000007 284.01599999999996 L 462.49600000000004 290.224 L 450.08000000000004 280.912 L 431.4560000000001 277.808 L 422.14400000000006 279.35999999999996 L 428.35200000000003 284.01599999999996 L 446.97600000000006 290.224 L 460.9440000000001 297.984 L 465.6 308.84799999999996 L 467.15200000000004 324.368 L 459.39200000000005 332.128 L 446.97600000000006 341.44 L 422.14400000000006 341.44 Z" stroke = "orange" stroke-width = "1" fill = "orange" />
<path d = "M484.99999999999994 341.44L 484.99999999999994 263.84 L 511.38399999999996 263.84 L 511.38399999999996 279.35999999999996 L 534.664 279.35999999999996 L 534.664 263.84 L 562.5999999999999 263.84 L 562.5999999999999 341.44 L 536.2159999999999 341.44 L 536.2159999999999 322.816 L 511.38399999999996 322.816 L 511.38399999999996 341.44 L 484.99999999999994 341.44 Z" stroke = "yellow" stroke-width = "1" fill = "yellow" />
<path d = "M217.28000000000003 496.6400000000001L 217.28000000000003 419.0400000000001 L 277.80800000000005 419.0400000000001 L 294.88000000000005 434.56000000000006 L 296.432 465.6000000000001 L 280.91200000000003 474.9120000000001 L 294.88000000000005 496.6400000000001 L 263.84000000000003 496.6400000000001 L 254.52800000000002 481.1200000000001 L 254.52800000000002 496.6400000000001 L 249.87200000000004 496.6400000000001 L 249.87200000000004 459.39200000000005 L 262.288 459.39200000000005 L 271.6 448.5280000000001 L 263.84000000000003 437.6640000000001 L 248.32000000000005 437.6640000000001 L 248.32000000000005 459.39200000000005 L 249.87200000000004 459.39200000000005 L 249.87200000000004 496.6400000000001 L 217.28000000000003 496.6400000000001 Z" stroke = "green" stroke-width = "1" fill = "green" />
<path d = "M345.32 496.6400000000001L 345.32 467.1520000000001 L 349.976 467.1520000000001 L 354.632 462.4960000000001 L 354.632 456.28800000000007 L 349.976 451.63200000000006 L 340.664 451.63200000000006 L 336.008 456.28800000000007 L 336.008 462.4960000000001 L 340.664 467.1520000000001 L 345.32 467.1520000000001 L 345.32 496.6400000000001 L 315.832 496.6400000000001 L 306.52 484.2240000000001 L 306.52 428.3520000000001 L 314.28 419.0400000000001 L 373.256 419.0400000000001 L 384.12 428.3520000000001 L 384.12 484.2240000000001 L 384.12 484.2240000000001 L 373.256 496.6400000000001 L 345.32 496.6400000000001 Z" stroke = "blue" stroke-width = "1" fill = "blue" />
<path d = "M395.76000000000005 419.0400000000001L 468.70400000000006 419.0400000000001 L 473.36000000000007 423.6960000000001 L 473.36000000000007 454.7360000000001 L 468.70400000000006 459.39200000000005 L 473.36000000000007 464.04800000000006 L 473.36000000000007 490.4320000000001 L 467.15200000000004 496.6400000000001 L 431.4560000000001 496.6400000000001 L 431.4560000000001 482.6720000000001 L 436.1120000000001 482.6720000000001 L 440.76800000000003 478.0160000000001 L 436.1120000000001 473.36000000000007 L 431.4560000000001 473.36000000000007 L 431.4560000000001 445.4240000000001 L 437.66400000000004 445.4240000000001 L 442.32000000000005 440.7680000000001 L 437.66400000000004 436.1120000000001 L 431.4560000000001 436.1120000000001 L 431.4560000000001 496.6400000000001 L 395.76000000000005 496.6400000000001 L 395.76000000000005 419.0400000000001 Z" stroke = "purple" stroke-width = "1" fill = "purple" />
<path d = "M523.8 496.6400000000001L 523.8 467.1520000000001 L 528.4559999999999 467.1520000000001 L 533.112 462.4960000000001 L 533.112 456.28800000000007 L 528.4559999999999 451.63200000000006 L 519.144 451.63200000000006 L 514.4879999999999 456.28800000000007 L 514.4879999999999 462.4960000000001 L 519.144 467.1520000000001 L 523.8 467.1520000000001 L 523.8 496.6400000000001 L 494.31199999999995 496.6400000000001 L 484.99999999999994 484.2240000000001 L 484.99999999999994 428.3520000000001 L 492.75999999999993 419.0400000000001 L 551.736 419.0400000000001 L 562.5999999999999 428.3520000000001 L 562.5999999999999 484.2240000000001 L 562.5999999999999 484.2240000000001 L 551.736 496.6400000000001 L 523.8 496.6400000000001 Z" stroke = "red" stroke-width = "1" fill = "red" />
<path d = "M574.2400000000001 419.0400000000001L 651.8400000000001 419.0400000000001 L 651.8400000000001 454.7360000000001 L 627.0080000000002 454.7360000000001 L 627.0080000000002 496.6400000000001 L 595.9680000000001 496.6400000000001 L 595.9680000000001 454.7360000000001 L 574.2400000000001 454.7360000000001 L 574.2400000000001 419.0400000000001 Z" stroke = "orange" stroke-width = "1" fill = "orange" />
<path d = "M331.352 651.8400000000001L 331.352 631.6640000000001 L 351.52799999999996 631.6640000000001 L 351.52799999999996 651.8400000000001 L 331.352 651.8400000000001 Z" stroke = "yellow" stroke-width = "1" fill = "yellow" />
<path d = "M395.76000000000005 651.8400000000001L 395.76000000000005 574.2400000000001 L 420.59200000000004 574.2400000000001 L 443.87200000000007 594.4160000000002 L 443.87200000000007 574.2400000000001 L 473.36000000000007 574.2400000000001 L 473.36000000000007 651.8400000000001 L 443.87200000000007 651.8400000000001 L 419.0400000000001 633.2160000000001 L 419.0400000000001 651.8400000000001 L 395.76000000000005 651.8400000000001 Z" stroke = "green" stroke-width = "1" fill = "green" />
<path d = "M484.99999999999994 651.8400000000001L 484.99999999999994 574.2400000000001 L 562.5999999999999 574.2400000000001 L 562.5999999999999 595.9680000000001 L 540.872 595.9680000000001 L 540.872 605.2800000000001 L 562.5999999999999 605.2800000000001 L 562.5999999999999 620.8000000000002 L 540.872 620.8000000000002 L 540.872 631.6640000000001 L 562.5999999999999 631.6640000000001 L 564.1519999999999 651.8400000000001 L 484.99999999999994 651.8400000000001 Z" stroke = "blue" stroke-width = "1" fill = "blue" />
<path d = "M574.2400000000001 574.2400000000001L 651.8400000000001 574.2400000000001 L 651.8400000000001 609.9360000000001 L 627.0080000000002 609.9360000000001 L 627.0080000000002 651.8400000000001 L 595.9680000000001 651.8400000000001 L 595.9680000000001 609.9360000000001 L 574.2400000000001 609.9360000000001 L 574.2400000000001 574.2400000000001 Z" stroke = "purple" stroke-width = "1" fill = "purple" /></svg>