<svg width="776" height="776" viewbox = "0 0 776 776"  xmlns="http://www.w3.org/2000/svg">

<!--<json>{
    "text": "RIDE     BIKE!  USE      LINUX!",
    "left_margin": 0.1,
    "top_margin": 0.1,
    "horizontal_gap": 0.015,
    "vertical_gap": 0.1,
    "number_of_columns": 8,
    "rainbow": true
}</json>-->
<path d = "M 0 0 L776 0 L776 776 L0 776 L0 0 Z" stroke = "black" stroke-width = "1" fill = "black" />
<path d = "M77.60000000000002 155.20000000000005L 77.60000000000002 77.60000000000002 L 138.12800000000004 77.60000000000002 L 155.20000000000005 93.12000000000003 L 156.75200000000004 124.16000000000003 L 141.23200000000003 133.47200000000004 L 155.20000000000005 155.20000000000005 L 124.16000000000003 155.20000000000005 L 114.84800000000003 139.68000000000004 L 114.84800000000003 155.20000000000005 L 110.19200000000004 155.20000000000005 L 110.19200000000004 117.95200000000003 L 122.60800000000003 117.95200000000003 L 131.92000000000004 107.08800000000002 L 124.16000000000003 96.22400000000002 L 108.64000000000003 96.22400000000002 L 108.64000000000003 117.95200000000003 L 110.19200000000004 117.95200000000003 L 110.19200000000004 155.20000000000005 L 77.60000000000002 155.20000000000005 Z" stroke = "red" stroke-width = "1" fill = "red" />
<path d = "M166.84 155.20000000000005L 166.84 133.47200000000004 L 182.36 133.47200000000004 L 182.36 100.88000000000002 L 166.84 100.88000000000002 L 166.84 77.60000000000002 L 244.44 77.60000000000002 L 244.44 100.88000000000002 L 225.816 100.88000000000002 L 225.816 133.47200000000004 L 244.44 133.47200000000004 L 244.44 155.20000000000005 L 166.84 155.20000000000005 Z" stroke = "orange" stroke-width = "1" fill = "orange" />
<path d = "M256.08 155.20000000000005L 256.08 77.60000000000002 L 321.264 77.60000000000002 L 333.68 90.01600000000002 L 333.68 141.23200000000003 L 319.712 155.20000000000005 L 287.12 155.20000000000005 L 287.12 133.47200000000004 L 297.984 133.47200000000004 L 305.74399999999997 124.16000000000003 L 305.74399999999997 105.53600000000003 L 297.984 96.22400000000002 L 285.568 96.22400000000002 L 285.568 133.47200000000004 L 287.12 133.47200000000004 L 288.67199999999997 155.20000000000005 L 256.08 155.20000000000005 Z" stroke = "yellow" stroke-width = "1" fill = "yellow" />
<path d = "M345.32000000000005 155.20000000000005L 345.32000000000005 77.60000000000002 L 422.9200000000001 77.60000000000002 L 422.9200000000001 99.32800000000003 L 401.19200000000006 99.32800000000003 L 401.19200000000006 108.64000000000003 L 422.9200000000001 108.64000000000003 L 422.9200000000001 124.16000000000003 L 401.19200000000006 124.16000000000003 L 401.19200000000006 135.02400000000003 L 422.9200000000001 135.02400000000003 L 424.4720000000001 155.20000000000005 L 345.32000000000005 155.20000000000005 Z" stroke = "green" stroke-width = "1" fill = "green" />
<path d = "M166.84 232.79999999999995L 239.78400000000002 232.79999999999995 L 244.44 237.45599999999996 L 244.44 268.496 L 239.78400000000002 273.15199999999993 L 244.44 277.80799999999994 L 244.44 304.19199999999995 L 238.23200000000003 310.4 L 202.536 310.4 L 202.536 296.43199999999996 L 207.192 296.43199999999996 L 211.848 291.77599999999995 L 207.192 287.11999999999995 L 202.536 287.11999999999995 L 202.536 259.18399999999997 L 208.74400000000003 259.18399999999997 L 213.4 254.52799999999996 L 208.74400000000003 249.87199999999996 L 202.536 249.87199999999996 L 202.536 310.4 L 166.84 310.4 L 166.84 232.79999999999995 Z" stroke = "blue" stroke-width = "1" fill = "blue" />
<path d = "M256.08 310.4L 256.08 288.67199999999997 L 271.59999999999997 288.67199999999997 L 271.59999999999997 256.0799999999999 L 256.08 256.0799999999999 L 256.08 232.79999999999995 L 333.68 232.79999999999995 L 333.68 256.0799999999999 L 315.056 256.0799999999999 L 315.056 288.67199999999997 L 333.68 288.67199999999997 L 333.68 310.4 L 256.08 310.4 Z" stroke = "purple" stroke-width = "1" fill = "purple" />
<path d = "M345.32000000000005 310.4L 345.32000000000005 232.79999999999995 L 382.56800000000004 232.79999999999995 L 382.56800000000004 251.42399999999995 L 399.64000000000004 232.79999999999995 L 422.9200000000001 232.79999999999995 L 424.4720000000001 257.63199999999995 L 407.4000000000001 274.70399999999995 L 422.9200000000001 288.67199999999997 L 422.9200000000001 310.4 L 401.19200000000006 310.4 L 382.56800000000004 291.77599999999995 L 382.56800000000004 310.4 L 345.32000000000005 310.4 Z" stroke = "red" stroke-width = "1" fill = "red" />
<path d = "M434.56000000000006 310.4L 434.56000000000006 232.79999999999995 L 512.1600000000001 232.79999999999995 L 512.1600000000001 254.52799999999996 L 490.4320000000001 254.52799999999996 L 490.4320000000001 263.84 L 512.1600000000001 263.84 L 512.1600000000001 279.35999999999996 L 490.4320000000001 279.35999999999996 L 490.4320000000001 290.22399999999993 L 512.1600000000001 290.22399999999993 L 513.7120000000001 310.4 L 434.56000000000006 310.4 Z" stroke = "orange" stroke-width = "1" fill = "orange" />
<path d = "M554.84 296.43199999999996L 554.84 307.29599999999994 L 570.3600000000001 307.29599999999994 L 570.3600000000001 290.22399999999993 L 554.84 290.22399999999993 L 554.84 296.43199999999996 L 554.84 232.79999999999995 L 570.3600000000001 232.79999999999995 L 570.3600000000001 277.80799999999994 L 554.84 277.80799999999994 Z" stroke = "yellow" stroke-width = "1" fill = "yellow" />
<path d = "M77.60000000000002 388L 107.08800000000002 388 L 107.08800000000002 414.384 L 110.19200000000004 428.352 L 116.40000000000003 434.56 L 124.16000000000003 434.56 L 128.81600000000003 429.904 L 131.92000000000004 422.144 L 131.92000000000004 388 L 155.20000000000005 388 L 155.20000000000005 442.32 L 155.20000000000005 454.736 L 152.09600000000003 459.392 L 142.78400000000005 464.048 L 136.57600000000002 465.6 L 93.12000000000003 465.6 L 85.36000000000003 460.944 L 80.70400000000002 454.736 L 77.60000000000002 442.32 L 77.60000000000002 388 Z" stroke = "green" stroke-width = "1" fill = "green" />
<path d = "M193.22400000000002 465.6L 176.15200000000002 465.6 L 166.84 453.184 L 166.84 439.216 L 174.6 439.216 L 180.808 446.976 L 185.464 451.632 L 199.43200000000002 451.632 L 210.29600000000002 451.632 L 219.608 445.424 L 221.16000000000003 436.112 L 208.74400000000003 426.8 L 191.672 420.592 L 177.704 415.936 L 171.496 408.176 L 168.392 401.968 L 166.84 397.312 L 169.94400000000002 391.104 L 174.6 389.552 L 185.464 388 L 204.08800000000002 388 L 218.056 388 L 225.816 391.104 L 238.23200000000003 395.76 L 241.336 401.968 L 244.44 408.176 L 233.57600000000002 414.384 L 221.16000000000003 405.072 L 202.536 401.968 L 193.22400000000002 403.52 L 199.43200000000002 408.176 L 218.056 414.384 L 232.024 422.144 L 236.68 433.008 L 238.23200000000003 448.528 L 230.472 456.288 L 218.056 465.6 L 193.22400000000002 465.6 Z" stroke = "blue" stroke-width = "1" fill = "blue" />
<path d = "M256.08 465.6L 256.08 388 L 333.68 388 L 333.68 409.728 L 311.952 409.728 L 311.952 419.04 L 333.68 419.04 L 333.68 434.56 L 311.952 434.56 L 311.952 445.424 L 333.68 445.424 L 335.23199999999997 465.6 L 256.08 465.6 Z" stroke = "purple" stroke-width = "1" fill = "purple" />
<path d = "M166.84 620.8000000000002L 166.84 543.2000000000002 L 205.64000000000001 543.2000000000002 L 205.64000000000001 583.5520000000001 L 244.44 583.5520000000001 L 244.44 620.8000000000002 L 166.84 620.8000000000002 Z" stroke = "red" stroke-width = "1" fill = "red" />
<path d = "M256.08 620.8000000000002L 256.08 599.0720000000001 L 271.59999999999997 599.0720000000001 L 271.59999999999997 566.4800000000001 L 256.08 566.4800000000001 L 256.08 543.2000000000002 L 333.68 543.2000000000002 L 333.68 566.4800000000001 L 315.056 566.4800000000001 L 315.056 599.0720000000001 L 333.68 599.0720000000001 L 333.68 620.8000000000002 L 256.08 620.8000000000002 Z" stroke = "orange" stroke-width = "1" fill = "orange" />
<path d = "M345.32000000000005 620.8000000000002L 345.32000000000005 543.2000000000002 L 370.15200000000004 543.2000000000002 L 393.4320000000001 563.3760000000002 L 393.4320000000001 543.2000000000002 L 422.9200000000001 543.2000000000002 L 422.9200000000001 620.8000000000002 L 393.4320000000001 620.8000000000002 L 368.6 602.1760000000002 L 368.6 620.8000000000002 L 345.32000000000005 620.8000000000002 Z" stroke = "yellow" stroke-width = "1" fill = "yellow" />
<path d = "M434.56000000000006 543.2000000000002L 464.04800000000006 543.2000000000002 L 464.04800000000006 569.5840000000002 L 467.15200000000004 583.5520000000001 L 473.36000000000007 589.7600000000002 L 481.12000000000006 589.7600000000002 L 485.77600000000007 585.1040000000002 L 488.88000000000005 577.3440000000002 L 488.88000000000005 543.2000000000002 L 512.1600000000001 543.2000000000002 L 512.1600000000001 597.5200000000002 L 512.1600000000001 609.9360000000001 L 509.05600000000004 614.5920000000002 L 499.7440000000001 619.2480000000002 L 493.53600000000006 620.8000000000002 L 450.08000000000004 620.8000000000002 L 442.32000000000005 616.1440000000002 L 437.66400000000004 609.9360000000001 L 434.56000000000006 597.5200000000002 L 434.56000000000006 543.2000000000002 Z" stroke = "green" stroke-width = "1" fill = "green" />
<path d = "M523.8000000000001 543.2000000000002L 553.2880000000001 543.2000000000002 L 562.6 558.7200000000001 L 571.912 543.2000000000002 L 601.4000000000001 543.2000000000002 L 579.672 582.0000000000001 L 601.4000000000001 620.8000000000002 L 573.464 620.8000000000002 L 559.4960000000001 595.9680000000002 L 547.08 620.8000000000002 L 523.8000000000001 620.8000000000002 L 543.9760000000001 582.0000000000001 L 523.8000000000001 543.2000000000002 Z" stroke = "blue" stroke-width = "1" fill = "blue" />
<path d = "M644.08 606.8320000000002L 644.08 617.6960000000001 L 659.6000000000001 617.6960000000001 L 659.6000000000001 600.6240000000001 L 644.08 600.6240000000001 L 644.08 606.8320000000002 L 644.08 543.2000000000002 L 659.6000000000001 543.2000000000002 L 659.6000000000001 588.2080000000002 L 644.08 588.2080000000002 Z" stroke = "purple" stroke-width = "1" fill = "purple" /></svg>