<svg width="776" height="776" viewbox = "0 0 776 776"  xmlns="http://www.w3.org/2000/svg">

<!--<json>{
    "text": "WWW.     CYBER    PUNK      .LOL",
    "left_margin": 0.05,
    "top_margin": 0.14,
    "horizontal_gap": 0.015,
    "vertical_gap": 0.1,
    "number_of_columns": 8,
    "rainbow": false
}</json>-->
<path d = "M 0 0 L776 0 L776 776 L0 776 L0 0 Z" stroke = "black" stroke-width = "1" fill = "black" />
<path d = "M38.800000000000004 108.63999999999999L 62.080000000000005 108.63999999999999 L 69.84 124.16 L 77.60000000000001 108.63999999999999 L 83.808 124.16 L 91.56800000000001 108.63999999999999 L 116.4 108.63999999999999 L 85.36000000000001 186.24 L 79.15200000000002 173.824 L 71.39200000000001 186.24 L 38.800000000000004 108.63999999999999 Z" stroke = "#ff2cb4" stroke-width = "1" fill = "#ff2cb4" />
<path d = "M128.04000000000002 108.63999999999999L 151.32000000000002 108.63999999999999 L 159.08000000000004 124.16 L 166.84000000000003 108.63999999999999 L 173.04800000000003 124.16 L 180.80800000000002 108.63999999999999 L 205.64000000000004 108.63999999999999 L 174.60000000000002 186.24 L 168.39200000000002 173.824 L 160.63200000000003 186.24 L 128.04000000000002 108.63999999999999 Z" stroke = "#ff2cb4" stroke-width = "1" fill = "#ff2cb4" />
<path d = "M217.28000000000003 108.63999999999999L 240.56000000000003 108.63999999999999 L 248.32000000000005 124.16 L 256.08000000000004 108.63999999999999 L 262.288 124.16 L 270.04800000000006 108.63999999999999 L 294.88000000000005 108.63999999999999 L 263.84000000000003 186.24 L 257.63200000000006 173.824 L 249.87200000000004 186.24 L 217.28000000000003 108.63999999999999 Z" stroke = "#ff2cb4" stroke-width = "1" fill = "#ff2cb4" />
<path d = "M331.352 186.24L 331.352 166.064 L 351.52799999999996 166.064 L 351.52799999999996 186.24 L 331.352 186.24 Z" stroke = "#ff2cb4" stroke-width = "1" fill = "#ff2cb4" />
<path d = "M166.84000000000003 341.44L 190.12000000000003 341.44 L 205.64000000000004 325.91999999999996 L 205.64000000000004 304.192 L 179.25600000000003 304.192 L 179.25600000000003 304.192 L 174.60000000000002 310.4 L 166.84000000000003 310.4 L 162.18400000000003 304.192 L 162.18400000000003 294.88 L 166.84000000000003 290.224 L 176.15200000000002 290.224 L 179.25600000000003 294.88 L 205.64000000000004 294.88 L 205.64000000000004 271.59999999999997 L 199.43200000000002 263.84 L 135.8 263.84 L 128.04000000000002 271.59999999999997 L 128.04000000000002 332.128 L 135.8 341.44 L 190.12000000000003 341.44 Z" stroke = "#ff2cb4" stroke-width = "1" fill = "#ff2cb4" />
<path d = "M217.28000000000003 263.84L 243.66400000000004 263.84 L 254.52800000000002 280.912 L 266.944 263.84 L 294.88000000000005 263.84 L 270.04800000000006 299.536 L 270.04800000000006 341.44 L 240.56000000000003 341.44 L 240.56000000000003 299.536 L 217.28000000000003 263.84 Z" stroke = "#ff2cb4" stroke-width = "1" fill = "#ff2cb4" />
<path d = "M306.52 263.84L 379.464 263.84 L 384.12 268.496 L 384.12 299.536 L 379.464 304.192 L 384.12 308.84799999999996 L 384.12 335.23199999999997 L 377.912 341.44 L 342.216 341.44 L 342.216 327.472 L 346.87199999999996 327.472 L 351.52799999999996 322.816 L 346.87199999999996 318.15999999999997 L 342.216 318.15999999999997 L 342.216 290.224 L 348.424 290.224 L 353.08 285.568 L 348.424 280.912 L 342.216 280.912 L 342.216 341.44 L 306.52 341.44 L 306.52 263.84 Z" stroke = "#ff2cb4" stroke-width = "1" fill = "#ff2cb4" />
<path d = "M395.76000000000005 341.44L 395.76000000000005 263.84 L 473.36000000000007 263.84 L 473.36000000000007 285.568 L 451.63200000000006 285.568 L 451.63200000000006 294.88 L 473.36000000000007 294.88 L 473.36000000000007 310.4 L 451.63200000000006 310.4 L 451.63200000000006 321.264 L 473.36000000000007 321.264 L 474.91200000000003 341.44 L 395.76000000000005 341.44 Z" stroke = "#ff2cb4" stroke-width = "1" fill = "#ff2cb4" />
<path d = "M484.99999999999994 341.44L 484.99999999999994 263.84 L 545.5279999999999 263.84 L 562.5999999999999 279.35999999999996 L 564.1519999999999 310.4 L 548.632 319.712 L 562.5999999999999 341.44 L 531.56 341.44 L 522.2479999999999 325.91999999999996 L 522.2479999999999 341.44 L 517.592 341.44 L 517.592 304.192 L 530.0079999999999 304.192 L 539.3199999999999 293.328 L 531.56 282.464 L 516.04 282.464 L 516.04 304.192 L 517.592 304.192 L 517.592 341.44 L 484.99999999999994 341.44 Z" stroke = "#ff2cb4" stroke-width = "1" fill = "#ff2cb4" />
<path d = "M217.28000000000003 496.6400000000001L 217.28000000000003 419.0400000000001 L 282.46400000000006 419.0400000000001 L 294.88000000000005 429.90400000000005 L 294.88000000000005 459.39200000000005 L 282.46400000000006 470.2560000000001 L 254.52800000000002 470.2560000000001 L 254.52800000000002 496.6400000000001 L 246.76800000000003 496.6400000000001 L 246.76800000000003 451.63200000000006 L 256.08000000000004 451.63200000000006 L 262.288 445.4240000000001 L 256.08000000000004 439.21600000000007 L 246.76800000000003 439.21600000000007 L 246.76800000000003 496.6400000000001 L 217.28000000000003 496.6400000000001 Z" stroke = "#ff2cb4" stroke-width = "1" fill = "#ff2cb4" />
<path d = "M306.52 419.0400000000001L 336.008 419.0400000000001 L 336.008 445.4240000000001 L 339.11199999999997 459.39200000000005 L 345.32 465.6000000000001 L 353.08 465.6000000000001 L 357.736 460.9440000000001 L 360.84 453.1840000000001 L 360.84 419.0400000000001 L 384.12 419.0400000000001 L 384.12 473.36000000000007 L 384.12 485.77600000000007 L 381.01599999999996 490.4320000000001 L 371.704 495.0880000000001 L 365.496 496.6400000000001 L 322.03999999999996 496.6400000000001 L 314.28 491.9840000000001 L 309.62399999999997 485.77600000000007 L 306.52 473.36000000000007 L 306.52 419.0400000000001 Z" stroke = "#ff2cb4" stroke-width = "1" fill = "#ff2cb4" />
<path d = "M395.76000000000005 496.6400000000001L 395.76000000000005 419.0400000000001 L 420.59200000000004 419.0400000000001 L 443.87200000000007 439.21600000000007 L 443.87200000000007 419.0400000000001 L 473.36000000000007 419.0400000000001 L 473.36000000000007 496.6400000000001 L 443.87200000000007 496.6400000000001 L 419.0400000000001 478.0160000000001 L 419.0400000000001 496.6400000000001 L 395.76000000000005 496.6400000000001 Z" stroke = "#ff2cb4" stroke-width = "1" fill = "#ff2cb4" />
<path d = "M484.99999999999994 496.6400000000001L 484.99999999999994 419.0400000000001 L 522.2479999999999 419.0400000000001 L 522.2479999999999 437.6640000000001 L 539.3199999999999 419.0400000000001 L 562.5999999999999 419.0400000000001 L 564.1519999999999 443.87200000000007 L 547.0799999999999 460.9440000000001 L 562.5999999999999 474.9120000000001 L 562.5999999999999 496.6400000000001 L 540.872 496.6400000000001 L 522.2479999999999 478.0160000000001 L 522.2479999999999 496.6400000000001 L 484.99999999999994 496.6400000000001 Z" stroke = "#ff2cb4" stroke-width = "1" fill = "#ff2cb4" />
<path d = "M420.59200000000004 651.8400000000001L 420.59200000000004 631.6640000000001 L 440.76800000000003 631.6640000000001 L 440.76800000000003 651.8400000000001 L 420.59200000000004 651.8400000000001 Z" stroke = "#ff2cb4" stroke-width = "1" fill = "#ff2cb4" />
<path d = "M484.99999999999994 651.8400000000001L 484.99999999999994 574.2400000000001 L 523.8 574.2400000000001 L 523.8 614.5920000000001 L 562.5999999999999 614.5920000000001 L 562.5999999999999 651.8400000000001 L 484.99999999999994 651.8400000000001 Z" stroke = "#ff2cb4" stroke-width = "1" fill = "#ff2cb4" />
<path d = "M613.0400000000001 651.8400000000001L 613.0400000000001 622.3520000000001 L 617.6960000000001 622.3520000000001 L 622.3520000000001 617.6960000000001 L 622.3520000000001 611.4880000000002 L 617.6960000000001 606.8320000000001 L 608.3840000000001 606.8320000000001 L 603.7280000000002 611.4880000000002 L 603.7280000000002 617.6960000000001 L 608.3840000000001 622.3520000000001 L 613.0400000000001 622.3520000000001 L 613.0400000000001 651.8400000000001 L 583.5520000000001 651.8400000000001 L 574.2400000000001 639.4240000000001 L 574.2400000000001 583.5520000000001 L 582.0000000000001 574.2400000000001 L 640.9760000000001 574.2400000000001 L 651.8400000000001 583.5520000000001 L 651.8400000000001 639.4240000000001 L 651.8400000000001 639.4240000000001 L 640.9760000000001 651.8400000000001 L 613.0400000000001 651.8400000000001 Z" stroke = "#ff2cb4" stroke-width = "1" fill = "#ff2cb4" />
<path d = "M663.48 651.8400000000001L 663.48 574.2400000000001 L 702.28 574.2400000000001 L 702.28 614.5920000000001 L 741.08 614.5920000000001 L 741.08 651.8400000000001 L 663.48 651.8400000000001 Z" stroke = "#ff2cb4" stroke-width = "1" fill = "#ff2cb4" /></svg>